<svg width="158" height="128" viewBox="0 0 158 128" fill="none" xmlns="http://www.w3.org/2000/svg">
<path d="M73.6004 127.015C73.4831 127.015 73.3659 127.01 73.2486 127.002C60.2449 126.105 50.3015 124.18 41.9551 120.94C32.8203 117.395 25.5109 112.226 19.665 105.167C19.2001 105.383 18.9474 105.723 18.8686 105.842C17.967 107.474 16.2609 108.48 14.3952 108.48C14.0839 108.48 13.7685 108.452 13.4613 108.393C11.2519 107.983 9.58623 106.208 9.3194 103.976C9.28099 103.657 9.19811 102.844 9.19003 101.755C8.29858 102.442 7.21107 102.814 6.07099 102.814C5.37764 102.814 4.70249 102.677 4.06575 102.404C2.1636 101.591 0.942667 99.7315 0.958838 97.6656C0.962881 97.0147 1.05383 91.1587 2.72959 86.5923C3.7787 83.7381 4.07383 80.7585 3.58869 77.975C1.31662 64.9733 2.11509 53.3077 6.03663 42.384C4.24566 39.6389 2.91152 36.4067 2.06859 32.754C1.22364 29.0952 0.857766 24.9837 0.983094 20.5325C1.18928 13.118 2.68715 7.22758 2.75183 6.98096C3.15813 5.40022 4.30831 4.09843 5.82639 3.50009C6.27919 3.32221 10.4474 1.74348 17.2636 1.31898C18.339 1.25228 19.4467 1.21791 20.5544 1.21791C27.8982 1.21791 35.3269 2.63492 42.6545 5.43054C53.8249 0.989492 66.673 0.463928 67.2349 0.443714C67.2996 0.441692 67.3623 0.439667 67.4249 0.439667H91.3888C91.4515 0.439667 91.5121 0.439671 91.5748 0.443714C92.1408 0.463928 104.989 0.989492 116.159 5.43054C123.487 2.63492 130.913 1.21791 138.257 1.21791C139.365 1.21791 140.473 1.25228 141.55 1.31898C148.362 1.74348 152.535 3.32018 152.987 3.50009C154.507 4.10045 155.656 5.40224 156.064 6.98298C156.129 7.23162 157.626 13.1342 157.833 20.5345C157.956 24.9857 157.592 29.0972 156.747 32.756C155.902 36.4107 154.57 39.6409 152.779 42.386C156.701 53.3118 157.501 64.9753 155.227 77.9771C154.74 80.7605 155.037 83.7401 156.084 86.5943C157.758 91.1526 157.851 97.0147 157.855 97.6676C157.871 99.7416 156.646 101.605 154.736 102.414C154.101 102.683 153.43 102.818 152.743 102.818C151.601 102.818 150.515 102.446 149.624 101.757C149.616 102.847 149.533 103.657 149.494 103.976C149.227 106.204 147.507 108.031 145.312 108.418C145.015 108.47 144.716 108.496 144.417 108.496C142.551 108.496 140.861 107.498 139.963 105.881C139.907 105.8 139.719 105.547 139.426 105.331C139.337 105.264 139.246 105.21 139.151 105.163C133.305 112.224 125.993 117.397 116.857 120.942C108.51 124.181 98.5668 126.107 85.5631 127.004C85.4458 127.012 85.3286 127.017 85.2113 127.017H73.6024L73.6004 127.015Z" fill="white"/>
<path d="M73.6004 121.902C51.2051 120.358 33.7017 115.466 22.117 100.023C16.7117 98.9937 14.3952 103.368 14.3952 103.368C14.3952 103.368 13.623 96.9319 16.7117 94.6153C11.3064 92.5555 6.07099 97.704 6.07099 97.704C6.07099 97.704 6.11344 92.2098 7.52843 88.353C8.85246 84.7488 9.28502 80.8738 8.62402 77.0917C6.96848 67.6254 6.30345 54.9835 11.8199 41.5855C2.03827 30.2596 7.70025 8.25042 7.70025 8.25042C7.70025 8.25042 22.3737 2.45907 42.7091 10.953C53.5196 6.06123 67.4209 5.54779 67.4209 5.54779H91.3847C91.3847 5.54779 105.286 6.06325 116.097 10.953C136.432 2.45907 151.105 8.25042 151.105 8.25042C151.105 8.25042 156.769 30.2596 146.986 41.5855C152.502 54.9835 151.837 67.6254 150.182 77.0917C149.521 80.8738 149.953 84.7488 151.277 88.353C152.694 92.2098 152.735 97.704 152.735 97.704C152.735 97.704 147.501 92.5555 142.094 94.6153C145.183 96.9319 144.41 103.368 144.41 103.368C144.41 103.368 142.094 98.9917 136.689 100.023C125.104 115.468 107.601 120.358 85.2053 121.902H73.5963H73.6004Z" fill="#FCD2D4"/>
<path d="M67.4209 5.5498C67.4209 5.5498 61.8317 5.75801 54.9872 7.15481C52.6484 9.95851 51.3062 13.215 51.3062 16.6918C51.3062 27.187 63.5215 35.6952 78.5892 35.6952C78.8621 35.6952 79.1329 35.6931 79.4018 35.6871C79.6726 35.6931 79.9435 35.6952 80.2144 35.6952C95.282 35.6952 107.497 27.187 107.497 16.6918C107.497 13.215 106.157 9.95851 103.816 7.15481C96.9719 5.75599 91.3827 5.5498 91.3827 5.5498H67.4189H67.4209Z" fill="#ED5F5F"/>
<path d="M79.4038 77.6718C54.5768 77.8598 34.5386 91.1749 34.5386 107.573C34.5386 109.016 34.6962 110.437 34.9974 111.826C45.3835 118.248 58.3589 120.851 73.5983 121.902H85.2073C100.449 120.851 113.422 118.25 123.808 111.826C124.109 110.437 124.267 109.016 124.267 107.573C124.267 91.1749 104.229 77.8578 79.4018 77.6718H79.4038Z" fill="white"/>
<path d="M85.2093 123.701H73.6004C73.5599 123.701 73.5175 123.701 73.4771 123.697C60.8149 122.824 51.1809 120.966 43.1538 117.851C33.9928 114.296 26.7804 109.008 21.1305 101.696C17.5405 101.357 16.0022 104.181 15.986 104.209C15.6181 104.904 14.8399 105.28 14.0657 105.137C13.2915 104.993 12.7012 104.363 12.6082 103.582C12.5395 103.012 12.1373 99.0948 13.5159 95.9555C10.2109 96.2325 7.36673 98.9573 7.33034 98.9917C6.81084 99.497 6.03461 99.6446 5.36754 99.3596C4.70048 99.0746 4.26789 98.4176 4.27193 97.6919C4.27193 97.4554 4.33257 91.8379 5.84055 87.7344C7.08978 84.3344 7.43949 80.7626 6.85328 77.405C4.5711 64.3568 5.52118 52.7316 9.75604 41.9029C7.69622 39.2306 6.19834 35.9074 5.29679 32.0061C4.5145 28.6222 4.17693 24.7916 4.29417 20.6235C4.49025 13.5849 5.89917 8.03817 5.95982 7.80571C6.10334 7.2478 6.50559 6.79096 7.04127 6.58073C7.20096 6.51807 11.0477 5.02425 17.4677 4.62401C23.1944 4.26824 32.1695 4.75338 42.6848 9.00037C53.5641 4.31271 66.7862 3.77299 67.3562 3.75278C67.3784 3.75278 67.4007 3.75278 67.4229 3.75278H91.3868C91.409 3.75278 91.4312 3.75278 91.4535 3.75278C92.0235 3.77299 105.244 4.31473 116.125 9.00037C126.64 4.75135 135.615 4.26622 141.342 4.62401C147.762 5.02222 151.609 6.51605 151.77 6.58073C152.306 6.79298 152.708 7.2478 152.852 7.80571C152.913 8.03817 154.319 13.5849 154.518 20.6235C154.635 24.7937 154.297 28.6222 153.515 32.0061C152.613 35.9074 151.116 39.2286 149.056 41.9029C153.291 52.7296 154.241 64.3568 151.958 77.405C151.372 80.7626 151.722 84.3344 152.971 87.7344C154.479 91.8379 154.538 97.4554 154.54 97.6919C154.546 98.4196 154.111 99.0786 153.442 99.3636C152.771 99.6466 151.997 99.4991 151.477 98.9897C151.445 98.9573 148.601 96.2325 145.296 95.9575C146.674 99.0988 146.27 103.014 146.203 103.584C146.108 104.373 145.518 105.02 144.736 105.157C143.958 105.294 143.19 104.923 142.83 104.219C142.781 104.136 142.306 103.338 141.384 102.661C140.325 101.884 139.082 101.561 137.683 101.696C132.033 109.008 124.821 114.298 115.66 117.853C107.635 120.968 97.9988 122.826 85.3367 123.699C85.2962 123.701 85.2538 123.703 85.2134 123.703L85.2093 123.701ZM73.663 120.101H85.1467C110.796 118.324 125.314 112.192 135.251 98.9411C135.52 98.5813 135.914 98.3367 136.355 98.2539C138.854 97.7788 140.911 98.27 142.498 99.1251C142.274 97.8617 141.833 96.6671 141.019 96.0546C140.493 95.6604 140.224 95.0135 140.317 94.3647C140.408 93.7158 140.845 93.168 141.459 92.9335C144.97 91.5953 148.324 92.697 150.679 94.0069C150.489 92.3938 150.159 90.522 149.591 88.9756C148.124 84.9813 147.718 80.7666 148.413 76.7844C150.645 64.0253 149.634 52.7357 145.326 42.2728C145.067 41.6442 145.185 40.9245 145.627 40.4111C153.576 31.2076 150.483 13.8538 149.579 9.63913C148.182 9.21666 145.162 8.45054 140.95 8.20393C135.51 7.88657 126.903 8.39394 116.794 12.6147C116.333 12.8067 115.814 12.7986 115.359 12.5944C105.244 8.01796 92.07 7.37919 91.3504 7.34887H67.4593C66.7457 7.37919 53.5702 8.01796 43.451 12.5944C42.9962 12.8006 42.4767 12.8087 42.0158 12.6147C31.9067 8.39192 23.3015 7.88454 17.8599 8.20393C13.6473 8.45054 10.6272 9.21464 9.23045 9.63913C8.32688 13.8538 5.23412 31.2076 13.1823 40.4111C13.627 40.9245 13.7423 41.6442 13.4835 42.2728C9.17588 52.7357 8.16517 64.0232 10.3968 76.7844C11.0922 80.7646 10.6859 84.9813 9.21833 88.9756C8.6483 90.526 8.3188 92.3958 8.12879 94.0089C10.4837 92.699 13.8393 91.5973 17.3505 92.9355C17.963 93.17 18.3996 93.7178 18.4926 94.3667C18.5835 95.0156 18.3147 95.6644 17.7912 96.0566C16.9988 96.6509 16.55 97.8415 16.3175 99.1231C17.9023 98.27 19.9581 97.7788 22.4545 98.2539C22.8952 98.3388 23.2894 98.5833 23.5582 98.9411C33.4955 112.192 48.0153 118.324 73.663 120.101Z" fill="#841919"/>
<path d="M13.2956 11.7374C13.2956 11.7374 24.5306 9.80286 34.3809 15.5881C38.5369 18.03 39.2889 23.7243 35.897 27.1486C31.8299 31.2521 27.8598 33.6838 24.8479 35.0968C21.7956 36.53 18.155 35.303 16.6107 32.3052C14.3042 27.8217 11.7128 20.4456 13.2956 11.7374Z" fill="#ED5F5F"/>
<path d="M145.512 11.7374C145.512 11.7374 134.277 9.80286 124.427 15.5881C120.271 18.03 119.519 23.7243 122.911 27.1486C126.978 31.2521 130.948 33.6838 133.96 35.0968C137.012 36.53 140.653 35.303 142.197 32.3052C144.503 27.8217 147.095 20.4456 145.512 11.7374Z" fill="#ED5F5F"/>
<path d="M22.1615 36.9484C19.4386 36.9484 16.835 35.4607 15.505 32.8753C13.0388 28.0825 10.4413 20.4861 12.0706 11.515C12.1636 10.9996 12.5699 10.5993 13.0853 10.5104C13.5624 10.4275 24.8863 8.5678 35.0136 14.5148C37.3322 15.8772 38.8624 18.1857 39.2081 20.8479C39.5537 23.506 38.6704 26.1218 36.7824 28.0259C33.2853 31.5553 29.4487 34.3145 25.3775 36.2268C24.3345 36.716 23.2369 36.9505 22.1595 36.9505L22.1615 36.9484ZM14.375 12.8552C13.1925 20.7509 15.5151 27.4458 17.7204 31.7352C18.9595 34.1447 21.8583 35.1251 24.3203 33.9689C28.1246 32.1819 31.7228 29.5905 35.0136 26.2713C36.3558 24.917 36.9845 23.0573 36.7379 21.1693C36.4913 19.2752 35.4038 17.6318 33.7523 16.6636C25.9638 12.0891 17.1322 12.5662 14.375 12.8572V12.8552Z" fill="#841919"/>
<path d="M136.648 36.9484C135.571 36.9484 134.475 36.716 133.43 36.2248C129.361 34.3125 125.524 31.5533 122.025 28.0239C120.137 26.1197 119.254 23.502 119.6 20.8459C119.947 18.1816 121.475 15.8732 123.794 14.5128C133.921 8.56576 145.245 10.4275 145.722 10.5083C146.238 10.5973 146.644 10.9995 146.737 11.513C148.366 20.484 145.769 28.0805 143.303 32.8733C141.973 35.4587 139.369 36.9464 136.646 36.9464L136.648 36.9484ZM140.952 12.6814C136.921 12.6814 130.715 13.3403 125.057 16.6615C123.406 17.6298 122.318 19.2732 122.072 21.1672C121.825 23.0552 122.454 24.917 123.796 26.2693C127.087 29.5905 130.685 32.1799 134.489 33.9668C136.949 35.1231 139.848 34.1407 141.087 31.7332C143.295 27.4437 145.615 20.7468 144.433 12.8532C143.679 12.7743 142.468 12.6793 140.95 12.6793L140.952 12.6814Z" fill="#841919"/>
<path d="M88.9025 105.561C88.2111 105.561 87.4693 105.493 86.6729 105.337C83.6933 104.757 81.2029 102.861 79.4038 99.8205C77.6048 102.861 75.1144 104.757 72.1348 105.337C67.8494 106.17 65.1367 104.52 63.6166 102.99C61.9853 101.349 61.3668 99.5172 61.3425 99.4404C61.2111 99.0402 61.4274 98.6096 61.8276 98.4782C62.2259 98.3468 62.6564 98.5631 62.7898 98.9614C62.8788 99.2282 64.9669 105.179 71.8458 103.841C74.7768 103.271 77.0893 101.264 78.7186 97.8738C78.8459 97.611 79.1127 97.4433 79.4038 97.4433C79.6949 97.4433 79.9638 97.611 80.0891 97.8738C81.7204 101.264 84.0329 103.271 86.9619 103.841C93.8468 105.179 95.9329 99.214 96.0199 98.9593C96.1533 98.5611 96.5838 98.3448 96.9821 98.4782C97.3803 98.6116 97.5965 99.0402 97.4652 99.4384C97.4389 99.5152 96.8223 101.347 95.1911 102.988C93.9519 104.233 91.9245 105.557 88.9025 105.557V105.561Z" fill="#561010"/>
<path d="M79.4039 98.2053C74.7101 98.1427 70.9362 95.7473 70.9362 92.8021C70.9362 89.8569 74.7101 87.4615 79.4039 87.3989C84.0976 87.4615 87.8716 89.8569 87.8716 92.8021C87.8716 95.7473 84.0976 98.1427 79.4039 98.2053Z" fill="#561010"/>
<path d="M54.9245 85.7757C61.1429 85.7757 66.1838 79.5256 66.1838 71.8158C66.1838 64.1059 61.1429 57.8559 54.9245 57.8559C48.7062 57.8559 43.6653 64.1059 43.6653 71.8158C43.6653 79.5256 48.7062 85.7757 54.9245 85.7757Z" fill="#561010"/>
<path d="M103.883 85.7757C110.101 85.7757 115.142 79.5256 115.142 71.8158C115.142 64.1059 110.101 57.8559 103.883 57.8559C97.6648 57.8559 92.6239 64.1059 92.6239 71.8158C92.6239 79.5256 97.6648 85.7757 103.883 85.7757Z" fill="#561010"/>
<path d="M47.1198 71.365C49.433 71.365 51.3082 69.04 51.3082 66.172C51.3082 63.304 49.433 60.979 47.1198 60.979C44.8066 60.979 42.9315 63.304 42.9315 66.172C42.9315 69.04 44.8066 71.365 47.1198 71.365Z" fill="white"/>
<path d="M111.69 71.365C114.003 71.365 115.878 69.04 115.878 66.172C115.878 63.304 114.003 60.979 111.69 60.979C109.377 60.979 107.501 63.304 107.501 66.172C107.501 69.04 109.377 71.365 111.69 71.365Z" fill="white"/>
<path d="M63.3316 81.7531C64.4949 81.7531 65.4379 80.5838 65.4379 79.1414C65.4379 77.699 64.4949 76.5297 63.3316 76.5297C62.1683 76.5297 61.2253 77.699 61.2253 79.1414C61.2253 80.5838 62.1683 81.7531 63.3316 81.7531Z" fill="white"/>
<path d="M95.4761 81.7531C96.6394 81.7531 97.5824 80.5838 97.5824 79.1414C97.5824 77.699 96.6394 76.5297 95.4761 76.5297C94.3128 76.5297 93.3698 77.699 93.3698 79.1414C93.3698 80.5838 94.3128 81.7531 95.4761 81.7531Z" fill="white"/>
<path d="M29.7663 83.7035C31.8061 81.6637 31.8061 78.3565 29.7663 76.3166C27.7264 74.2768 24.4192 74.2768 22.3794 76.3166C20.3395 78.3565 20.3395 81.6637 22.3794 83.7035C24.4192 85.7434 27.7264 85.7434 29.7663 83.7035Z" fill="#ED5F5F"/>
<path d="M133.932 85.1113C136.739 84.4487 138.478 81.6355 137.815 78.8278C137.153 76.0202 134.34 74.2814 131.532 74.944C128.724 75.6067 126.985 78.4199 127.648 81.2276C128.311 84.0352 131.124 85.774 133.932 85.1113Z" fill="#ED5F5F"/>
</svg>
